<svg width="20" height="20" viewBox="0 0 20 20" fill="none" xmlns="http://www.w3.org/2000/svg">
<g clip-path="url(#clip0_123_1083)">
<path fill-rule="evenodd" clip-rule="evenodd" d="M4.30305 10.0001C4.30305 9.36496 4.40853 8.75607 4.5968 8.18496L1.30145 5.66852C0.65921 6.97252 0.297363 8.44185 0.297363 10.0001C0.297363 11.557 0.658765 13.0254 1.30012 14.3285L4.59368 11.8072C4.40719 11.2387 4.30305 10.6321 4.30305 10.0001Z" fill="#FBBC05"/>
<path fill-rule="evenodd" clip-rule="evenodd" d="M10.0888 4.22229C11.4686 4.22229 12.7148 4.71118 13.694 5.51118L16.5424 2.66673C14.8066 1.15562 12.5813 0.22229 10.0888 0.22229C6.21936 0.22229 2.89375 2.43518 1.30127 5.66851L4.59661 8.18496C5.35591 5.88007 7.52031 4.22229 10.0888 4.22229Z" fill="#EB4335"/>
<path fill-rule="evenodd" clip-rule="evenodd" d="M10.0888 15.7779C7.52031 15.7779 5.35591 14.1201 4.59661 11.8152L1.30127 14.3312C2.89375 17.565 6.21936 19.7779 10.0888 19.7779C12.4771 19.7779 14.7572 18.9299 16.4686 17.341L13.3406 14.9227C12.458 15.4787 11.3466 15.7779 10.0888 15.7779Z" fill="#34A853"/>
<path fill-rule="evenodd" clip-rule="evenodd" d="M19.4355 10.0001C19.4355 9.42229 19.3464 8.80007 19.2129 8.22229H10.0889V12.0001H15.3408C15.0782 13.2881 14.3634 14.2783 13.3406 14.9227L16.4686 17.341C18.2662 15.6725 19.4355 13.1872 19.4355 10.0001Z" fill="#4285F4"/>
</g>
<defs>
<clipPath id="clip0_123_1083">
<rect width="20" height="20" fill="white"/>
</clipPath>
</defs>
</svg>
