<svg width="800" height="800" viewBox="0 0 800 800" fill="none" xmlns="http://www.w3.org/2000/svg">
<g clip-path="url(#clip0_1_2)">
<path d="M69.9171 601.214C116.29 601.214 164.09 581 201.903 542C228.3 556.269 253.984 569.349 292.271 569.349C334.126 569.349 360.286 558.409 383.829 545.329C420.453 581.714 467.776 601.69 513.197 601.69C551.011 601.69 579.786 585.994 579.786 556.981C579.786 529.396 559.334 517.98 531.51 510.37C524.374 508.469 517.24 506.803 510.11 504.901C615.694 502.76 616.883 449.253 687.751 449.253C752.201 449.253 800 426.899 800 382.666C800 288.016 745.779 237.6 682.76 237.6C618.076 237.6 583.589 278.503 569.796 332.249C561.95 361.5 548.157 379.811 527.229 390.276L512.247 362.689C449.94 246.399 390.963 199.787 295.6 199.55C192.39 199.787 139.596 244.734 62.7829 390.276C39.4771 434.746 0 444.497 0 472.32C0 491.821 14.9829 504.901 45.1843 504.901H69.6786C59.4529 507.754 49.2271 510.37 39.9529 513.7C17.5986 521.547 3.33 533.439 3.33 556.269C3.33 585.281 32.1043 601.214 69.9171 601.214ZM295.6 237.363C359.81 237.363 400.713 266.137 434.007 308.706C394.769 341.761 347.206 360.311 292.747 360.311C239.001 360.311 192.153 342.713 153.627 310.37C194.293 256.387 234.244 237.363 295.6 237.363ZM578.597 456.15C567.659 447.826 555.053 432.13 547.446 418.813C573.366 409.063 590.724 391.701 600.951 351.036C612.369 302.047 638.527 273.51 682.76 273.51C728.181 273.51 765.994 315.364 765.994 376.959C765.994 399.789 731.036 414.531 694.887 414.531C639.477 414.531 609.037 436.649 578.597 456.15ZM689.656 358.884C700.119 358.884 708.441 350.323 708.441 339.859C708.441 329.396 700.119 321.071 689.656 321.071C679.19 321.071 670.866 329.396 670.866 339.859C670.866 350.323 679.19 358.884 689.656 358.884ZM481.569 383.141C497.977 412.391 518.906 445.686 540.071 466.613C530.321 466.851 519.144 466.613 507.727 466.613C472.296 466.613 445.899 473.034 423.781 481.833C400.713 451.156 384.067 407.636 380.261 375.293C408.086 364.83 431.867 350.086 451.844 333.676C462.067 349.134 471.819 365.781 481.569 383.141ZM83.2343 466.613C71.1057 466.613 58.74 466.851 47.8 467.564L45.8986 464.234C62.0686 450.68 82.2829 433.557 96.5514 405.02C110.583 378.147 123.424 355.317 136.029 335.579C156.004 351.987 180.5 366.97 209.75 377.196C204.994 408.349 187.871 452.107 165.993 481.833C144.351 473.034 118.193 466.613 83.2343 466.613ZM292.271 531.536C250.654 531.536 225.209 512.036 192.39 494.437C214.507 463.046 230.916 419.764 235.671 384.569C253.27 388.611 272.294 390.989 292.747 390.989C314.626 390.989 334.84 388.134 353.627 383.617C357.194 420.24 374.079 463.521 397.146 494.674C364.09 512.273 337.456 531.536 292.271 531.536ZM38.7629 551.274C38.7629 542.713 44.9471 537.006 63.2586 532.487C74.4357 529.633 104.161 520.359 125.803 510.133C141.974 513.7 156.004 518.931 168.609 524.877C132.224 555.554 99.6429 569.349 70.1543 569.349C49.2271 569.349 38.7629 562.689 38.7629 551.274ZM519.86 533.2C538.167 537.719 544.353 543.426 544.353 551.987C544.353 563.164 533.887 569.823 512.959 569.823C483.946 569.823 451.844 556.506 416.171 527.017C428.3 520.359 441.379 514.651 456.837 510.609C478.243 520.834 508.683 530.109 519.86 533.2Z" fill="#255C7A"/>
</g>
<defs>
<clipPath id="clip0_1_2">
<rect width="800" height="800" fill="white"/>
</clipPath>
</defs>
</svg>
