<svg width="19" height="18" viewBox="0 0 19 18" fill="none" xmlns="http://www.w3.org/2000/svg">
<g clip-path="url(#clip0_123_1070)">
<path d="M17.7207 7.06426C17.0437 5.95555 16.1896 4.9652 15.1925 4.13251L17.2925 2.03251C17.4291 1.89106 17.5047 1.70161 17.503 1.50496C17.5013 1.30831 17.4224 1.1202 17.2834 0.981145C17.1443 0.842088 16.9562 0.763212 16.7595 0.761503C16.5629 0.759794 16.3734 0.83539 16.232 0.972009L13.9482 3.25876C12.5325 2.41787 10.9141 1.97961 9.26749 1.99126C4.62424 1.99126 1.97824 5.16976 0.814244 7.06426C0.45464 7.64589 0.26416 8.31619 0.26416 9.00001C0.26416 9.68383 0.45464 10.3541 0.814244 10.9358C1.49131 12.0445 2.34536 13.0348 3.34249 13.8675L1.24249 15.9675C1.17086 16.0367 1.11373 16.1195 1.07442 16.211C1.03511 16.3025 1.01442 16.4009 1.01356 16.5005C1.01269 16.6 1.03167 16.6988 1.06938 16.791C1.10709 16.8831 1.16278 16.9669 1.2332 17.0373C1.30362 17.1077 1.38736 17.1634 1.47953 17.2011C1.5717 17.2388 1.67046 17.2578 1.77005 17.2569C1.86963 17.2561 1.96804 17.2354 2.05955 17.1961C2.15105 17.1568 2.23381 17.0996 2.30299 17.028L4.59199 14.739C6.00594 15.5798 7.6225 16.0188 9.26749 16.0088C13.9107 16.0088 16.5567 12.8303 17.7207 10.9358C18.0803 10.3541 18.2708 9.68383 18.2708 9.00001C18.2708 8.31619 18.0803 7.64589 17.7207 7.06426ZM2.09224 10.1505C1.8786 9.80479 1.76543 9.40641 1.76543 9.00001C1.76543 8.5936 1.8786 8.19522 2.09224 7.84951C3.09274 6.22501 5.35399 3.49126 9.26749 3.49126C10.5127 3.48428 11.7404 3.78439 12.842 4.36501L11.3322 5.87476C10.6122 5.39671 9.74892 5.18251 8.88892 5.26849C8.02891 5.35448 7.22514 5.73536 6.614 6.34651C6.00285 6.95766 5.62197 7.76143 5.53598 8.62143C5.44999 9.48144 5.6642 10.3447 6.14224 11.0648L4.40974 12.7973C3.49107 12.0545 2.70712 11.1592 2.09224 10.1505ZM11.5175 9.00001C11.5175 9.59674 11.2804 10.169 10.8585 10.591C10.4365 11.013 9.86423 11.25 9.26749 11.25C8.93338 11.2487 8.60389 11.1718 8.30374 11.025L11.2925 8.03626C11.4393 8.33641 11.5162 8.66589 11.5175 9.00001ZM7.01749 9.00001C7.01749 8.40327 7.25455 7.83097 7.6765 7.40902C8.09846 6.98706 8.67076 6.75001 9.26749 6.75001C9.60161 6.7513 9.9311 6.82822 10.2312 6.97501L7.24249 9.96376C7.09571 9.66361 7.01879 9.33412 7.01749 9.00001ZM16.4427 10.1505C15.4422 11.775 13.181 14.5088 9.26749 14.5088C8.02229 14.5157 6.79457 14.2156 5.69299 13.635L7.20274 12.1253C7.92279 12.6033 8.78606 12.8175 9.64607 12.7315C10.5061 12.6455 11.3098 12.2647 11.921 11.6535C12.5321 11.0424 12.913 10.2386 12.999 9.37858C13.085 8.51858 12.8708 7.65531 12.3927 6.93526L14.1252 5.20276C15.0439 5.94547 15.8279 6.84079 16.4427 7.84951C16.6564 8.19522 16.7696 8.5936 16.7696 9.00001C16.7696 9.40641 16.6564 9.80479 16.4427 10.1505Z" fill="black" fill-opacity="0.6"/>
</g>
<defs>
<clipPath id="clip0_123_1070">
<rect width="18" height="18" fill="white" transform="translate(0.267578)"/>
</clipPath>
</defs>
</svg>
