<svg width="19" height="18" viewBox="0 0 19 18" fill="none" xmlns="http://www.w3.org/2000/svg">
<g clip-path="url(#clip0_123_1072)">
<path d="M9.26758 9C10.1576 9 11.0276 8.73608 11.7676 8.24162C12.5077 7.74715 13.0844 7.04434 13.425 6.22208C13.7656 5.39981 13.8547 4.49501 13.6811 3.6221C13.5075 2.74918 13.0789 1.94736 12.4496 1.31802C11.8202 0.688685 11.0184 0.260102 10.1455 0.0864683C9.27257 -0.0871652 8.36777 0.00194979 7.5455 0.342544C6.72324 0.683138 6.02043 1.25991 5.52596 1.99994C5.0315 2.73996 4.76758 3.60999 4.76758 4.5C4.76877 5.69311 5.24326 6.83701 6.08691 7.68067C6.93057 8.52432 8.07447 8.99881 9.26758 9ZM9.26758 1.5C9.86092 1.5 10.4409 1.67595 10.9343 2.00559C11.4276 2.33524 11.8122 2.80377 12.0392 3.35195C12.2663 3.90013 12.3257 4.50333 12.2099 5.08527C12.0942 5.66722 11.8085 6.20177 11.3889 6.62132C10.9693 7.04088 10.4348 7.3266 9.85285 7.44236C9.27091 7.55811 8.66771 7.4987 8.11953 7.27164C7.57135 7.04458 7.10281 6.66006 6.77317 6.16671C6.44353 5.67337 6.26758 5.09335 6.26758 4.5C6.26758 3.70435 6.58365 2.94129 7.14626 2.37868C7.70887 1.81607 8.47193 1.5 9.26758 1.5Z" fill="black" fill-opacity="0.6"/>
<path d="M9.26758 10.5C7.47798 10.502 5.76224 11.2138 4.4968 12.4792C3.23136 13.7447 2.51956 15.4604 2.51758 17.25C2.51758 17.4489 2.5966 17.6397 2.73725 17.7803C2.8779 17.921 3.06867 18 3.26758 18C3.46649 18 3.65726 17.921 3.79791 17.7803C3.93856 17.6397 4.01758 17.4489 4.01758 17.25C4.01758 15.8576 4.5707 14.5223 5.55527 13.5377C6.53983 12.5531 7.87519 12 9.26758 12C10.66 12 11.9953 12.5531 12.9799 13.5377C13.9645 14.5223 14.5176 15.8576 14.5176 17.25C14.5176 17.4489 14.5966 17.6397 14.7372 17.7803C14.8779 17.921 15.0687 18 15.2676 18C15.4665 18 15.6573 17.921 15.7979 17.7803C15.9386 17.6397 16.0176 17.4489 16.0176 17.25C16.0156 15.4604 15.3038 13.7447 14.0384 12.4792C12.7729 11.2138 11.0572 10.502 9.26758 10.5Z" fill="black" fill-opacity="0.6"/>
</g>
<defs>
<clipPath id="clip0_123_1072">
<rect width="18" height="18" fill="white" transform="translate(0.267578)"/>
</clipPath>
</defs>
</svg>
